<svg width="24" height="24" viewBox="0 0 24 24" xmlns="http://www.w3.org/2000/svg">
    <g stroke-width="2" fill="none" fill-rule="evenodd" stroke-linecap="round">
        <path d="M15.072 19a2 2 0 0 0 .034-.449c-.05-.828-.615-2.32 1.487-2.044 2.102.276.667-.608 1.794-.497 1.128.11 1.744.331 1.59 1.215" stroke="#F80"/>
        <path d="M4.263 18.336A9.953 9.953 0 0 1 2 12C2 6.477 6.477 2 12 2s10 4.477 10 10-4.477 10-10 10a9.954 9.954 0 0 1-4.886-1.273" stroke="#0037FF"/>
        <path d="M5.06 5s-.433.95 1.023 2.107c1.808 1.438.914 2.317 1.592 3.276.677.96-.135 4.038 1.32 4.534 1.457.496 2.947-1.29 3.185-3.872.236-2.58 1.66-1.092 2.133-2.548.305-.936 1.423-1.81 1.687-3.053" stroke="#0037FF"/>
    </g>
</svg>
